<?xml version='1.0' encoding='utf-8'?>
<svg xmlns="http://www.w3.org/2000/svg" id="Layer_1" data-name="Layer 1" width="884.39" height="884.39" viewBox="0 0 884.39 884.39"><defs><style>.cls-1{fill:#fff;}.cls-2{fill:#6ec72e;}.cls-3{fill:#68ba58;}.cls-4{fill:#11b200;}.cls-5{fill:#50d33d;}.cls-6{fill:none;}.cls-7{fill:#368900;}.cls-8{fill:#8fc985;}.cls-9{fill:#132815;}.cls-10{fill:#070f08;}.cls-11{fill:#0a050b;}</style></defs><title>creeper</title><path class="cls-1" d="M0,0V884.39H884.39V0ZM401.47,221V182h80v39h40.5v42h-40.5V221h-80v42H364V221Z" transform="translate(0 0)"/><polygon class="cls-2" points="481.42 626.47 481.42 666.97 441.22 666.97 441.17 626.47 481.42 626.47"/><polygon class="cls-2" points="401.47 543.98 401.47 585.97 363.97 585.97 363.97 626.47 320.92 626.47 321 585.97 321.07 543.98 401.47 543.98"/><polygon class="cls-2" points="401.47 423.98 401.47 465.16 363.97 465.08 321.22 464.99 321.3 423.98 401.47 423.98"/><polygon class="cls-2" points="560.92 504.98 441.02 504.98 440.97 465.25 481.42 465.33 521.92 465.42 521.92 423.98 560.92 423.98 560.92 504.98"/><polygon class="cls-3" points="440.92 423.98 401.47 423.98 401.47 347.15 440.83 347.29 440.87 384.98 440.92 423.98"/><polygon class="cls-4" points="363.97 347.02 363.97 384.98 321.37 384.98 321.44 346.86 363.97 347.02"/><polygon class="cls-5" points="363.97 465.08 363.97 543.98 321.07 543.98 321.15 504.98 321.22 464.99 363.97 465.08"/><polygon class="cls-4" points="401.47 666.97 401.47 705.97 320.77 705.97 320.85 666.97 320.92 626.47 363.97 626.47 363.97 666.97 401.47 666.97"/><polygon class="cls-5" points="401.47 347.15 401.47 423.98 321.3 423.98 321.37 384.98 363.97 384.98 363.97 347.02 401.47 347.15"/><line class="cls-6" x1="363.97" y1="465.08" x2="363.97" y2="423.98"/><line class="cls-6" x1="363.97" y1="585.97" x2="363.97" y2="543.98"/><polygon class="cls-4" points="440.97 465.25 401.47 465.16 401.47 423.98 440.92 423.98 440.97 465.25"/><rect class="cls-4" x="363.97" y="504.98" width="117.45" height="39"/><polygon class="cls-5" points="441.02 504.98 363.97 504.98 363.97 465.08 401.47 465.16 440.97 465.25 441.02 504.98"/><polygon class="cls-7" points="441.22 666.97 363.97 666.97 363.97 585.97 401.47 585.97 401.47 626.47 441.17 626.47 441.22 666.97"/><line class="cls-6" x1="481.42" y1="504.98" x2="481.42" y2="465.33"/><line class="cls-6" x1="521.92" y1="504.98" x2="521.92" y2="465.42"/><rect class="cls-7" x="481.42" y="666.97" width="40.5" height="39"/><polygon class="cls-5" points="560.92 347.73 560.92 384.98 521.92 384.98 521.92 465.42 481.42 465.33 440.97 465.25 440.92 423.98 440.87 384.98 440.83 347.29 481.42 347.44 521.92 347.59 560.92 347.73"/><polygon class="cls-5" points="560.92 543.98 560.92 585.97 481.42 585.97 481.42 626.47 401.47 626.47 401.47 543.98 560.92 543.98"/><rect class="cls-4" x="481.42" y="504.98" width="79.5" height="39"/><rect class="cls-4" x="481.42" y="585.97" width="79.5" height="81"/><rect class="cls-7" x="521.92" y="384.98" width="39" height="39"/><rect class="cls-8" x="521.92" y="666.97" width="39" height="39"/><line class="cls-6" x1="560.92" y1="465.5" x2="521.92" y2="465.42"/><line class="cls-6" x1="363.97" y1="585.97" x2="321" y2="585.97"/><polygon class="cls-5" points="441.27 705.97 401.47 705.97 401.47 666.97 441.22 666.97 441.27 705.97"/><polygon class="cls-4" points="481.42 666.97 481.42 705.97 441.27 705.97 441.22 666.97 481.42 666.97"/><polygon class="cls-7" points="320.77 707.97 320.7 746.97 281.56 746.97 281.58 707.97 320.77 707.97"/><polygon class="cls-5" points="602.39 746.97 481.42 746.97 481.42 707.97 602.23 707.97 602.39 746.97"/><polygon class="cls-3" points="481.42 707.97 481.42 746.97 441.32 746.97 441.27 707.97 481.42 707.97"/><polygon class="cls-9" points="320.55 826.46 320.48 866.39 281.48 866.39 281.51 826.46 320.55 826.46"/><polygon class="cls-8" points="441.37 787.46 401.47 787.46 401.47 746.97 441.32 746.97 441.37 787.46"/><polygon class="cls-10" points="481.42 826.46 481.42 866.39 441.47 866.39 441.42 826.46 481.42 826.46"/><rect class="cls-10" x="363.97" y="826.46" width="37.5" height="39.93"/><polygon class="cls-2" points="320.62 787.46 320.55 826.46 281.51 826.46 281.53 787.46 320.62 787.46"/><polygon class="cls-2" points="320.48 866.39 320.55 826.46 363.97 826.46 363.97 866.39 320.48 866.39"/><rect class="cls-2" x="363.97" y="787.46" width="37.5" height="39"/><polygon class="cls-2" points="401.47 866.39 401.47 826.46 441.42 826.46 441.47 866.39 401.47 866.39"/><rect class="cls-9" x="521.92" y="826.46" width="39" height="39.93"/><polygon class="cls-2" points="481.42 787.46 481.42 826.46 441.42 826.46 441.37 787.46 481.42 787.46"/><rect class="cls-2" x="481.42" y="826.46" width="40.5" height="39.93"/><rect class="cls-2" x="521.92" y="787.46" width="39" height="39"/><polygon class="cls-2" points="560.92 746.97 602.39 746.97 602.57 787.46 560.92 787.46 560.92 746.97"/><polygon class="cls-2" points="602.91 866.39 560.92 866.39 560.92 826.46 602.74 826.46 602.91 866.39"/><line class="cls-6" x1="281.48" y1="868.46" x2="281.48" y2="866.39"/><polygon class="cls-3" points="363.97 707.97 363.97 787.46 281.53 787.46 281.56 746.97 320.7 746.97 320.77 707.97 363.97 707.97"/><line class="cls-6" x1="320.48" y1="866.39" x2="320.47" y2="869.96"/><line class="cls-6" x1="363.97" y1="866.96" x2="363.97" y2="866.39"/><line class="cls-6" x1="401.47" y1="866.96" x2="401.47" y2="866.39"/><line class="cls-6" x1="441.47" y1="866.96" x2="441.47" y2="866.39"/><line class="cls-6" x1="481.42" y1="866.96" x2="481.42" y2="866.39"/><line class="cls-6" x1="521.92" y1="866.96" x2="521.92" y2="866.39"/><line class="cls-6" x1="560.92" y1="866.96" x2="560.92" y2="866.39"/><line class="cls-6" x1="602.91" y1="866.96" x2="602.91" y2="866.39"/><polygon class="cls-5" points="441.32 746.97 401.47 746.97 401.47 787.46 363.97 787.46 363.97 707.97 441.27 707.97 441.32 746.97"/><polygon class="cls-3" points="560.92 746.97 560.92 787.46 441.37 787.46 441.32 746.97 560.92 746.97"/><polygon class="cls-9" points="441.42 826.46 401.47 826.46 401.47 787.46 441.37 787.46 441.42 826.46"/><polygon class="cls-10" points="363.97 787.46 363.97 826.46 320.55 826.46 320.62 787.46 363.97 787.46"/><rect class="cls-10" x="481.42" y="787.46" width="40.5" height="39"/><polygon class="cls-10" points="602.74 826.46 560.92 826.46 560.92 787.46 602.57 787.46 602.74 826.46"/><polygon class="cls-4" points="321.97 62.39 321.9 101 281.96 101 281.98 62.39 321.97 62.39"/><polygon class="cls-5" points="401.47 62.39 401.47 101 321.9 101 321.97 62.39 401.47 62.39"/><polygon class="cls-11" points="401.47 101 401.47 141.5 363.97 141.5 363.97 181.99 321.75 181.99 321.82 141.5 321.9 101 401.47 101"/><rect class="cls-9" x="363.97" y="141.5" width="37.5" height="40.49"/><polygon class="cls-7" points="440.52 101 401.47 101 401.47 62.39 440.48 62.39 440.52 101"/><polygon class="cls-4" points="481.42 62.39 481.42 101 440.52 101 440.48 62.39 481.42 62.39"/><rect class="cls-8" x="481.42" y="62.39" width="79.5" height="38.61"/><rect x="363.97" y="220.99" width="37.5" height="42"/><rect class="cls-11" x="481.42" y="101" width="79.5" height="40.5"/><rect class="cls-9" x="521.92" y="141.5" width="39" height="40.49"/><rect class="cls-10" x="481.42" y="141.5" width="40.5" height="40.49"/><rect class="cls-5" x="521.92" y="181.99" width="39" height="39"/><rect x="401.47" y="181.99" width="79.95" height="39"/><rect x="481.42" y="220.99" width="40.5" height="42"/><rect class="cls-2" x="481.42" y="181.99" width="40.5" height="39"/><polygon class="cls-2" points="599.63 101 560.92 101 560.92 62.39 599.47 62.39 599.63 101"/><polygon class="cls-5" points="321.9 101 321.82 141.5 321.75 181.99 281.91 181.99 281.93 141.5 281.96 101 321.9 101"/><polygon class="cls-4" points="321.75 181.99 321.67 220.99 281.88 220.99 281.91 181.99 321.75 181.99"/><polygon class="cls-3" points="363.97 220.99 363.97 303.49 321.52 303.49 321.6 262.99 281.85 262.99 281.88 220.99 363.97 220.99"/><polygon class="cls-5" points="321.6 262.99 321.52 303.49 321.44 344.86 281.8 344.72 281.83 303.49 281.85 262.99 321.6 262.99"/><polygon class="cls-10" points="401.47 303.49 401.47 345.15 363.97 345.02 363.97 303.49 401.47 303.49"/><polygon class="cls-4" points="363.97 303.49 363.97 345.02 321.44 344.86 321.52 303.49 363.97 303.49"/><line class="cls-6" x1="440.48" y1="62.39" x2="440.47" y2="57.5"/><polygon class="cls-11" points="481.42 262.99 440.73 262.99 440.78 303.49 363.97 303.49 363.97 262.99 401.47 262.99 401.47 220.99 481.42 220.99 481.42 262.99"/><polygon class="cls-3" points="599.98 181.99 560.92 181.99 560.92 101 599.63 101 599.81 141.5 599.98 181.99"/><rect class="cls-3" x="521.92" y="262.99" width="39" height="40.5"/><polygon class="cls-4" points="600.5 303.49 560.92 303.49 560.92 262.99 600.33 262.99 600.5 303.49"/><polygon class="cls-8" points="560.92 303.49 560.92 345.73 521.92 345.59 521.92 303.49 560.92 303.49"/><polygon class="cls-7" points="600.69 345.87 560.92 345.73 560.92 303.49 600.5 303.49 600.69 345.87"/><polygon class="cls-8" points="481.42 303.49 481.42 345.44 440.83 345.29 401.47 345.15 401.47 303.49 481.42 303.49"/><line class="cls-6" x1="599.47" y1="62.39" x2="599.46" y2="60.5"/><polygon class="cls-4" points="440.62 181.99 401.47 181.99 401.47 101 440.52 101 440.57 141.5 440.62 181.99"/><polygon class="cls-5" points="481.42 101 481.42 181.99 440.62 181.99 440.57 141.5 440.52 101 481.42 101"/><polygon class="cls-5" points="401.47 181.99 401.47 220.99 321.67 220.99 321.75 181.99 401.47 181.99"/><polygon class="cls-3" points="600.33 262.99 521.92 262.99 521.92 220.99 560.92 220.99 560.92 181.99 599.98 181.99 600.15 220.99 600.33 262.99"/><polygon class="cls-10" points="521.92 262.99 521.92 345.59 481.42 345.44 481.42 303.49 440.78 303.49 440.73 262.99 521.92 262.99"/><polygon class="cls-7" points="321.97 24.39 321.9 63 281.96 63 281.98 24.39 321.97 24.39"/><polygon class="cls-5" points="401.47 24.39 401.47 63 321.9 63 321.97 24.39 401.47 24.39"/><polygon class="cls-4" points="440.52 63 401.47 63 401.47 24.39 440.48 24.39 440.52 63"/><polygon class="cls-4" points="481.42 24.39 481.42 63 440.52 63 440.48 24.39 481.42 24.39"/><rect class="cls-2" x="481.42" y="24.39" width="79.5" height="38.61"/><polygon class="cls-8" points="599.63 63 560.92 63 560.92 24.39 599.47 24.39 599.63 63"/><line class="cls-6" x1="440.48" y1="24.39" x2="440.47" y2="19.5"/><line class="cls-6" x1="599.47" y1="24.39" x2="599.46" y2="22.5"/></svg>